<svg width="30" height="30" viewBox="0 0 30 30" fill="none" xmlns="http://www.w3.org/2000/svg">
<path d="M18.67 29.9673C18.6744 29.9229 18.6769 29.878 18.6773 29.8326V19.0292H22.37C22.962 19.0292 23.4947 18.6392 23.5813 18.0531C23.6975 17.2315 23.6941 16.3974 23.5713 15.5767C23.486 15.0013 22.974 14.6233 22.3927 14.6233H18.6773C18.6773 11.2935 19.2313 10.8094 22.354 10.7481C22.9533 10.7368 23.4907 10.3414 23.578 9.74797C23.7247 8.75117 23.666 7.88038 23.574 7.26764C23.4893 6.70156 22.982 6.33284 22.41 6.33751C16.8907 6.38552 13.7473 7.03827 13.7473 14.6226H10.888C10.3327 14.6226 9.83933 14.9713 9.75467 15.5201C9.66467 16.1121 9.61 16.9703 9.76133 18.0137C9.848 18.6165 10.3907 19.0292 10.9993 19.0292H13.7473V30C9.474 29.972 6.41533 29.8033 4.424 29.6413C2.232 29.4633 0.540667 27.7717 0.362667 25.5794C0.185333 23.3985 0 19.9367 0 15.002C0 10.0673 0.185333 6.60555 0.362667 4.42459C0.54 2.2323 2.232 0.540072 4.424 0.362715C6.60467 0.185358 10.066 0 15 0C19.934 0 23.3953 0.185358 25.576 0.362715C27.768 0.540739 29.4593 2.2323 29.6373 4.42459C29.8147 6.60555 30 10.0673 30 15.002C30 19.9367 29.8147 23.3985 29.6373 25.5794C29.4593 27.7717 27.768 29.4633 25.576 29.6413C23.9827 29.7706 21.706 29.904 18.67 29.9673Z" fill="#FFA300"/>
</svg>
